<?xml version="1.0" encoding="UTF-8" standalone="no"?>
<!-- Created with Inkscape (http://www.inkscape.org/) -->
<!-- Original taken from the Open Clipt Art Library
     (<http://openclipart.org/detail/31525/interrogation-by-cybergedeon>),
     simplified by Michał Nazarewicz <mina86@mina86.com> -->
<svg xmlns:dc="http://purl.org/dc/elements/1.1/"
     xmlns:cc="http://creativecommons.org/ns#"
     xmlns:rdf="http://www.w3.org/1999/02/22-rdf-syntax-ns#"
     xmlns:svg="http://www.w3.org/2000/svg"
     xmlns="http://www.w3.org/2000/svg"
     version="1.0"
     width="1052.3622"
     height="744.09448">
  <metadata>
    <rdf:RDF>
      <cc:Work>
        <dc:format>image/svg+xml</dc:format>
        <dc:type rdf:resource="http://purl.org/dc/dcmitype/StillImage" />
      </cc:Work>
    </rdf:RDF>
  </metadata>
  <style>
    path {
      stroke-linecap: round;
      stroke-linejoin: round;
      stroke-width: 3;
      stroke: #000;
    }
  </style>
  <path style="fill:#009925"
        d="m 645.1684,302.42951 c -7.97071,0 -115.5752,13.94874 -115.5752,13.94874 4.80902,-101.94529 85.5199,-191.03242 233.14307,-185.31886 147.62319,5.71356 325.77623,224.10028 15.94141,219.19434 -23.00787,24.45514 -31.52049,75.4383 -39.85352,81.69972 -41.33249,-22.00779 -75.38957,-26.07086 -117.56786,-33.8755 17.32681,-24.10462 36.81376,-48.88568 45.83154,-61.77294 20.85792,-29.80788 52.40479,-34.73293 83.69239,-37.86084 94.54066,-13.03043 35.03085,-64.70014 -40.53729,-73.14536 -70.39715,-7.25331 -102.14728,34.46895 -65.07453,77.1307 z
           m -35.02376,160.37336 c 33.04884,-2.68841 100.98851,14.7128 98.63242,16.20388 -5.17272,3.27363 -31.92259,77.18897 -36.63491,78.20141 -2.48347,0.53358 -80.85343,-0.53349 -83.83753,-0.70449 -4.48406,-0.25698 15.25648,-100.98887 21.84002,-93.7008 z" />
  <path style="fill:#EEB211"
        d="m 529.5932,87.220536 c 49.15268,7.547688 98.30536,6.332951 139.48733,31.882814 -41.28216,90.02757 -62.76908,196.02943 -83.69239,280.96729 l -93.65576,-3.98536 C 499.63952,293.13037 506.26197,190.17545 529.5932,87.220536 z
           M 465.63844,455.4784 c 52.10331,-5.49287 94.20585,6.44634 135.86692,19.15509 1.87031,28.19313 15.34218,50.13705 -11.98827,95.77541 -50.60339,8.13832 -75.02616,7.74939 -107.8943,19.15509 -17.56032,-37.58797 -12.99958,-88.02884 -15.98435,-134.08559 z" />
  <path style="fill:#D50F25"
        d="m 272.53802,364.20246 c 0,0 -107.21951,75.74373 -123.08312,85.34316 -21.4805,-29.46896 -53.670473,-68.79076 -45.12924,-146.66137 24.80171,-226.117981 691.21153,-220.766738 413.31149,13.494 -61.60155,51.92811 -53.07988,64.04939 -41.8462,107.6045 l -115.57518,53.80224 c -27.75468,-51.36733 -29.36665,-98.28466 17.8073,-143.79379 69.15972,-66.71904 124.16084,-156.53403 -87.55095,-63.4445 -56.35446,24.77901 -68.29387,60.72307 -17.93409,93.65576 z
           m 93.93331,164.44934 c 37.79672,-15.40052 78.68883,-26.15796 123.99505,-30.29423 10.97708,26.16771 21.34827,53.34528 26.77166,88.76917 C 479.54928,606.3894 444.0857,630.10241 410.1514,656.87395 375.31307,621.29029 369.9667,575.2977 366.47133,528.6518 z" />
</svg>
