<?xml version="1.0" encoding="UTF-8" standalone="no"?>
<!-- Copyright (c) 2012 by Michal Nazarewicz (mina86@mina86.com) -->
<!-- Distributed under the terms of the Creative Commons
     Attribution-ShareAlike 3.0 Unported (CC BY-SA 3.0) license. -->
<svg xmlns="http://www.w3.org/2000/svg"
     xmlns:xlink="http://www.w3.org/1999/xlink"
     xmlns:dc="http://purl.org/dc/elements/1.1/"
     xmlns:cc="http://creativecommons.org/ns#"
     xmlns:rdf="http://www.w3.org/1999/02/22-rdf-syntax-ns#"
     width="1200" height="390" version="1.1">
  <metadata>
    <rdf:RDF>
      <cc:Work dc:format="image/svg+xml"
               dc:title="MMU and I/O MMU configurations"
               dc:description="Configurations of devices and CPU with MMU, I/O MMU and DMA."
               dc:language="en"
               cc:attributionName="Michał Nazarewicz"
               cc:attributionURL="http://mina86.com/">
        <dc:type rdf:resource="http://purl.org/dc/dcmitype/StillImage" />
        <dc:creator>
          <dc:Agent>
            <dc:title>Michał Nazarewicz</dc:title>
          </dc:Agent>
        </dc:creator>
        <dc:rights>
          <dc:Agent>
            <dc:title>CC-BY-SA</dc:title>
          </dc:Agent>
        </dc:rights>
        <cc:license rdf:resource="http://creativecommons.org/licenses/by-sa/3.0/" />
      </cc:Work>
      <cc:License rdf:about="http://creativecommons.org/licenses/by-sa/3.0/">
        <cc:permits rdf:resource="http://creativecommons.org/ns#Reproduction" />
        <cc:permits rdf:resource="http://creativecommons.org/ns#Distribution" />
        <cc:requires rdf:resource="http://creativecommons.org/ns#Notice" />
        <cc:requires rdf:resource="http://creativecommons.org/ns#Attribution" />
        <cc:permits rdf:resource="http://creativecommons.org/ns#DerivativeWorks" />
        <cc:requires rdf:resource="http://creativecommons.org/ns#ShareAlike" />
      </cc:License>
    </rdf:RDF>
  </metadata>
  <style>
    text {
      font-family: DejaVu Sans;
      font-size: 20;
      font-style: normal;
      font-variant: normal;
      font-weight: normal;
      font-stretch: normal;
      fill: #000;
      stroke: none;
      text-align: center;
      text-anchor: middle;
    }
    text.mmu {
      font-size: 25;
    }
    text.component {
      font-family: DejaVu Serif;
      font-size: 30;
      font-weight: bold;
    }

    .g {
      stroke-width: 4;
      stroke-dasharray: 4, 8;
    }
    #g-top, #g-top-big {
      fill: #CFC;
      stroke: #0C0;
    }
    #g-btm-rght, #g-btm-big {
      fill: #CCF;
      stroke: #00C;
    }
    #g-btm-left {
      fill: #FFC;
      stroke: #CC0;
    }

    .arrow {
      fill: #000;
      stroke: none;
      opacity: 0.5;
    }
    #a-left-data {
      fill: none;
      stroke: #000;
      stroke-width: 1;
      opacity: 0.5;
    }

    .b {
      stroke: none;
      fill: #FFF;
      opacity: 0.5;
    }
  </style>

  <defs>
    <rect id="g-top"       x=" 10" y=" 10" width="280" height="180" class="g"/>
    <rect id="g-btm-big"   x=" 10" y="200" width="280" height="180" class="g"/>
    <rect id="g-btm-left"  x=" 10" y="200" width="135" height="180" class="g"/>
    <rect id="g-btm-rght"  x="155" y="200" width="135" height="180" class="g"/>
    <path id="g-top-big"   d="M 10,10 h280 v180 h-145 v190 h-135 z" class="g"/>

    <rect id="c-top"       x=" 20" y=" 20" width="260" height=" 40"/>
    <rect id="c-btm-big"   x=" 20" y="330" width="260" height=" 40"/>
    <rect id="c-btm-left"  x=" 20" y="330" width="115" height=" 40"/>
    <rect id="c-btm-rght"  x="165" y="330" width="115" height=" 40"/>
    <rect id="c-mmu-big"   x=" 60" y="180" width="180" height=" 30" rx="25" ry="25"/>
    <rect id="c-mmu-left"  x=" 20" y="180" width="115" height=" 30" rx="25" ry="25"/>
    <rect id="c-mmu-rght"  x="165" y="180" width="115" height=" 30" rx="25" ry="25"/>

    <path id="a-top-cntr"  d="M150, 50 l -10,30 5,-5 v105 h10 v-105 l5,5 z" class="arrow"/>
    <path id="a-btm-cntr"  d="M150,200 l -10,30 5,-5 v105 h10 v-105 l5,5 z" class="arrow"/>
    <path id="a-top-left"  d="M 75, 50 l -10,30 5,-5 v105 h10 v-105 l5,5 z" class="arrow"/>
    <path id="a-btm-left"  d="M 75,200 l -10,30 5,-5 v105 h10 v-105 l5,5 z" class="arrow"/>
    <path id="a-top-rght"  d="M225, 50 l -10,30 5,-5 v105 h10 v-105 l5,5 z" class="arrow"/>
    <path id="a-btm-rght"  d="M225,200 l -10,30 5,-5 v105 h10 v-105 l5,5 z" class="arrow"/>
    <path id="a-left-long" d="M 75, 50 l -10,30 5,-5 v255 h10 v-255 l5,5 z" class="arrow"/>
    <path id="a-left-data" d="M 75,200 l -10,30 5,-5 v90 l -5,-5 10,30 10,-30 -5,5 v-90 l5,5 z"/>

    <rect id="b-top-cntr"  x=" 50" y="110" width="200" height="20" rx="10" ry="10" class="b"/>
    <rect id="b-btm-cntr"  x=" 50" y="260" width="200" height="20" rx="10" ry="10" class="b"/>
    <rect id="b-btm-rght"  x="175" y="260" width=" 95" height="40" rx="10" ry="10" class="b"/>
    <rect id="b-btm-left"  x=" 30" y="260" width=" 95" height="40" rx="10" ry="10" class="b"/>

    <text id="t-main"      x="150" y=" 50" class="component">Main Memory</text>
    <text id="t-cpu-cntr"  x="150" y="360" class="component">CPU</text>
    <text id="t-cpu-rght"  x="225" y="360" class="component">CPU</text>
    <text id="t-dev-left"  x=" 75" y="360" class="component" style="font-size:25">Devices</text>
    <text id="t-mmu-cntr"  x="150" y="205" class="mmu">MMU</text>
    <text id="t-mmu-rght"  x="225" y="205" class="mmu">MMU</text>
    <text id="t-dma-left"  x=" 75" y="205" class="mmu">DMA</text>
    <text id="t-iom-left"  x=" 75" y="205" class="mmu">IOMMU</text>
    <text id="t-phys-cntr" x="150" y="127" class="addr">Physical address</text>
    <text id="t-virt-cntr" x="150" y="277" class="addr">Virtual address</text>
    <text id="t-virt" class="addr">
      <tspan x="225" y="277">Virtual</tspan>
      <tspan x="225" y="297">address</tspan>
    </text>
    <text id="t-data" class="addr">
      <tspan x="75" y="277">Data</tspan>
      <tspan x="75" y="297">transfer</tspan>
    </text>
    <text id="t-bus" class="addr">
      <tspan x="75" y="277">Device</tspan>
      <tspan x="75" y="297">address</tspan>
    </text>

    <g id="ct-mmu">
      <use x="0" y="0" xlink:href="#c-top"/>
      <use x="0" y="0" xlink:href="#c-btm-big"/>
      <use x="0" y="0" xlink:href="#c-mmu-big"/>
    </g>
    <g id="ct-nommu">
      <use x="0" y="0" xlink:href="#c-top"/>
      <use x="0" y="0" xlink:href="#c-btm-rght"/>
      <use x="0" y="0" xlink:href="#c-btm-left"/>
      <use x="0" y="0" xlink:href="#c-mmu-rght"/>
    </g>
    <g id="ct-full">
      <use x="0" y="0" xlink:href="#ct-nommu"/>
      <use x="0" y="0" xlink:href="#c-mmu-left"/>
    </g>

    <g id="tpl-mmu">
      <use x="0" y="0" xlink:href="#g-top"/>
      <use x="0" y="0" xlink:href="#g-btm-big"/>
      <use x="5" y="5" xlink:href="#ct-mmu" style="opacity: 0.5; fill: #000; stroke: none"/>
      <use x="0" y="0" xlink:href="#ct-mmu" style="fill: #FFF; stroke: #000; stroke-width: 1"/>
      <use x="0" y="0" xlink:href="#a-top-cntr"/>
      <use x="0" y="0" xlink:href="#a-btm-cntr"/>
      <use x="0" y="0" xlink:href="#b-top-cntr"/>
      <use x="0" y="0" xlink:href="#b-btm-cntr"/>
      <use x="0" y="0" xlink:href="#t-main"/>
      <use x="0" y="0" xlink:href="#t-phys-cntr"/>
      <use x="0" y="0" xlink:href="#t-mmu-cntr"/>
      <use x="0" y="0" xlink:href="#t-cpu-cntr"/>
      <use x="0" y="0" xlink:href="#t-virt-cntr"/>
    </g>

    <g id="tpl-nommu">
      <use x="0" y="0" xlink:href="#g-top-big"/>
      <use x="0" y="0" xlink:href="#g-btm-rght"/>
      <use x="5" y="5" xlink:href="#ct-nommu" style="opacity: 0.5; fill: #000; stroke: none"/>
      <use x="0" y="0" xlink:href="#ct-nommu" style="fill: #FFF; stroke: #000; stroke-width: 1"/>
      <use x="0" y="0" xlink:href="#a-top-rght"/>
      <use x="0" y="0" xlink:href="#a-btm-rght"/>
      <use x="0" y="0" xlink:href="#a-left-long"/>
      <use x="0" y="0" xlink:href="#b-top-cntr"/>
      <use x="0" y="0" xlink:href="#b-btm-rght"/>
      <use x="0" y="0" xlink:href="#t-main"/>
      <use x="0" y="0" xlink:href="#t-phys-cntr"/>
      <use x="0" y="0" xlink:href="#t-mmu-rght"/>
      <use x="0" y="0" xlink:href="#t-cpu-rght"/>
      <use x="0" y="0" xlink:href="#t-dev-left"/>
      <use x="0" y="0" xlink:href="#t-virt"/>
    </g>

    <g id="tpl-dma">
      <use x="0" y="0" xlink:href="#g-top-big"/>
      <use x="0" y="0" xlink:href="#g-btm-rght"/>
      <use x="5" y="5" xlink:href="#ct-full" style="opacity: 0.5; fill: #000; stroke: none"/>
      <use x="0" y="0" xlink:href="#ct-full" style="fill: #FFF; stroke: #000; stroke-width: 1"/>
      <use x="0" y="0" xlink:href="#a-top-rght"/>
      <use x="0" y="0" xlink:href="#a-btm-rght"/>
      <use x="0" y="0" xlink:href="#a-top-left"/>
      <use x="0" y="0" xlink:href="#a-left-data"/>
      <use x="0" y="0" xlink:href="#b-top-cntr"/>
      <use x="0" y="0" xlink:href="#b-btm-left"/>
      <use x="0" y="0" xlink:href="#b-btm-rght"/>
      <use x="0" y="0" xlink:href="#t-main"/>
      <use x="0" y="0" xlink:href="#t-phys-cntr"/>
      <use x="0" y="0" xlink:href="#t-dma-left"/>
      <use x="0" y="0" xlink:href="#t-mmu-rght"/>
      <use x="0" y="0" xlink:href="#t-cpu-rght"/>
      <use x="0" y="0" xlink:href="#t-dev-left"/>
      <use x="0" y="0" xlink:href="#t-data"/>
      <use x="0" y="0" xlink:href="#t-virt"/>
    </g>

    <g id="tpl-iommu">
      <use x="0" y="0" xlink:href="#g-top"/>
      <use x="0" y="0" xlink:href="#g-btm-rght"/>
      <use x="0" y="0" xlink:href="#g-btm-left"/>
      <use x="5" y="5" xlink:href="#ct-full" style="opacity: 0.5; fill: #000; stroke: none"/>
      <use x="0" y="0" xlink:href="#ct-full" style="fill: #FFF; stroke: #000; stroke-width: 1"/>
      <use x="0" y="0" xlink:href="#a-top-rght"/>
      <use x="0" y="0" xlink:href="#a-btm-rght"/>
      <use x="0" y="0" xlink:href="#a-top-left"/>
      <use x="0" y="0" xlink:href="#a-btm-left"/>
      <use x="0" y="0" xlink:href="#b-top-cntr"/>
      <use x="0" y="0" xlink:href="#b-btm-left"/>
      <use x="0" y="0" xlink:href="#b-btm-rght"/>
      <use x="0" y="0" xlink:href="#t-main"/>
      <use x="0" y="0" xlink:href="#t-phys-cntr"/>
      <use x="0" y="0" xlink:href="#t-iom-left"/>
      <use x="0" y="0" xlink:href="#t-mmu-rght"/>
      <use x="0" y="0" xlink:href="#t-cpu-rght"/>
      <use x="0" y="0" xlink:href="#t-dev-left"/>
      <use x="0" y="0" xlink:href="#t-bus"/>
      <use x="0" y="0" xlink:href="#t-virt"/>
    </g>
  </defs>

  <use x="0"   y="0" id="img-mmu"   xlink:href="#tpl-mmu"/>
  <use x="300" y="0" id="img-nommu" xlink:href="#tpl-nommu"/>
  <use x="600" y="0" id="img-dma"   xlink:href="#tpl-dma"/>
  <use x="900" y="0" id="img-iommu" xlink:href="#tpl-iommu"/>
</svg>
